<?xml version="1.0" encoding="utf-8"?>
<!-- Generator: Adobe Illustrator 25.4.0, SVG Export Plug-In . SVG Version: 6.00 Build 0)  -->
<svg version="1.1" id="Layer_1" xmlns="http://www.w3.org/2000/svg" xmlns:xlink="http://www.w3.org/1999/xlink" x="0px" y="0px"
	 viewBox="0 0 2000 2000" style="enable-background:new 0 0 2000 2000;" xml:space="preserve">
<style type="text/css">
	.st0{fill:#FFFFFF;}
</style>
<g>
	<path class="st0" d="M1630.19,1805.88v-655.35l-248.82-121.38l-78.23,58.21l-117.49,87.45v536.49
		c-16.39-1.39-32.94-2.59-49.62-3.61v-560.72l21.35-15.89l96.18-71.56v-0.03l21.35-15.89l78.2-58.2l13.21-9.81V303.27L874.25,29
		l-36.4,38.39l-18.43,19.44l-52.29,55l-18.46,19.44l-21.91,23.09l-24.3,25.59l-18.46,19.54l-67.07,70.65v344.68L647.58,629V316.45
		l36.41-38.56v332.34l18.46-9.49V258.28l24.3-25.77v355.67l40.61-20.93V189.5l52.05-55.08V555.5l9.67,5.77l8.76,5.25V114.85
		l36.4-38.59v512l142.32,85.05l23.71,14.19v1016.4c-13.39-0.24-26.84-0.37-40.37-0.37c-2.76,0-5.52,0.02-8.27,0.03V715.09
		L804.15,603.06L369.62,827.09v978.79c-116.26,44.22-206.75,100.46-260.62,164.16c177.86-94.95,510.23-158.8,890.91-158.8
		c380.67,0,713.05,63.85,890.91,158.8C1836.95,1906.34,1746.46,1850.09,1630.19,1805.88z M389.48,871.91
		c67.21-17.52,242.21-147.74,343.57-169.3c34.91-7.41,61.06-12.9,71.11-15.02v63.91c-10.05,2.09-36.2,7.58-71.11,15.02
		c-101.36,21.56-276.36,151.74-343.57,169.26V871.91z M389.48,990.2c67.21-17.52,242.21-147.7,343.57-169.26
		c34.91-7.44,61.06-12.94,71.11-15.02v63.91c-10.05,2.09-36.2,7.58-71.11,14.99c-101.36,21.56-276.36,151.77-343.57,169.3V990.2z
		 M389.48,1108.52c67.21-17.49,242.21-147.74,343.57-169.27c34.91-7.41,61.06-12.9,71.11-15.02v63.87
		c-10.05,2.16-36.2,7.65-71.11,15.06c-101.36,21.52-276.36,151.74-343.57,169.26V1108.52z M389.48,1226.88
		c67.21-17.56,242.21-147.74,343.57-169.3c34.91-7.41,61.06-12.9,71.11-15.02v63.91c-10.05,2.08-36.2,7.58-71.11,15.02
		c-101.36,21.52-276.36,151.74-343.57,169.27V1226.88z M389.48,1345.17c67.21-17.52,242.21-147.74,343.57-169.26
		c34.91-7.44,61.06-12.93,71.11-15.02v63.91c-10.05,2.09-36.2,7.58-71.11,14.99c-101.36,21.56-276.36,151.77-343.57,169.3V1345.17z
		 M389.48,1463.5c67.21-17.49,242.21-147.74,343.57-169.26c34.91-7.41,61.06-12.9,71.11-15.02v63.87
		c-10.05,2.12-36.2,7.65-71.11,15.06c-101.36,21.52-276.36,151.74-343.57,169.26V1463.5z M389.48,1581.86
		c67.21-17.56,242.21-147.74,343.57-169.3c34.91-7.41,61.06-12.93,71.11-15.02v63.91c-10.05,2.08-36.2,7.58-71.11,15.02
		c-101.36,21.52-276.36,151.74-343.57,169.27V1581.86z M389.48,1700.14c67.21-17.52,242.21-147.74,343.57-169.26
		c34.91-7.44,61.06-12.93,71.11-15.02v63.87c-10.05,2.12-36.2,7.62-71.11,15.02c-101.36,21.56-276.36,151.77-343.57,169.3V1700.14z
		 M733.04,1649.21c34.91-7.41,61.06-12.9,71.11-15.06v63.91c-10.05,2.12-36.2,7.65-71.11,15.06c-12.02,2.54-25.1,6.66-38.91,11.92
		c-69.57,10.11-135.5,23.56-196.72,39.92C574.69,1720.34,668.7,1662.86,733.04,1649.21z M1551.75,1143.89l66.93,32.65v67.8
		l-66.93-32.61V1143.89z M1551.75,1244.34l66.93,32.65v67.8l-66.93-32.65V1244.34z M1551.75,1344.79l66.93,32.61v67.84l-66.93-32.65
		V1344.79z M1551.75,1445.24l66.93,32.61v67.8l-66.93-32.61V1445.24z M1551.75,1545.66l66.93,32.65v67.8l-66.93-32.61V1545.66z
		 M1551.75,1646.11l66.93,32.62v67.84l-66.93-32.65V1646.11z M1618.68,1779.18v22.39c-21.49-7.91-43.82-15.41-66.93-22.49v-32.51
		L1618.68,1779.18z M1477.93,1107.86l59.25,28.93v67.8l-59.25-28.9V1107.86z M1477.93,1208.32l59.25,28.89v67.84l-59.25-28.93
		V1208.32z M1477.93,1308.77l59.25,28.89v67.8l-59.25-28.89V1308.77z M1477.93,1409.22l59.25,28.9v67.8l-59.25-28.9V1409.22z
		 M1477.93,1509.63l59.25,28.93v67.8l-59.25-28.89V1509.63z M1477.93,1610.09l59.25,28.89v67.84l-59.25-28.93V1610.09z
		 M1537.18,1739.44v35.27c-19.24-5.66-39.01-11.02-59.25-16.07v-48.09L1537.18,1739.44z M1396.47,1068.12l66.9,32.65v67.8
		l-66.9-32.61V1068.12z M1396.47,1168.57l66.9,32.61v67.84l-66.9-32.65V1168.57z M1396.47,1269.03l66.9,32.61v67.8l-66.9-32.61
		V1269.03z M1396.47,1369.44l66.9,32.65v67.8l-66.9-32.61V1369.44z M1396.47,1469.89l66.9,32.65v67.8l-66.9-32.61V1469.89z
		 M1396.47,1570.34l66.9,32.62v67.84l-66.9-32.65V1570.34z M1396.47,1738.6v-67.8l66.9,32.61v51.66
		c-19.67-4.71-39.79-9.13-60.3-13.25L1396.47,1738.6z"/>
</g>
</svg>
