<?xml version="1.0" encoding="utf-8"?>
<!-- Generator: Adobe Illustrator 25.4.0, SVG Export Plug-In . SVG Version: 6.00 Build 0)  -->
<svg version="1.1" id="Layer_1" xmlns="http://www.w3.org/2000/svg" xmlns:xlink="http://www.w3.org/1999/xlink" x="0px" y="0px"
	 viewBox="0 0 2000 2000" style="enable-background:new 0 0 2000 2000;" xml:space="preserve">
<g>
	<path d="M1592.74,1758.87v-616.72l-234.15-114.23l-73.62,54.78l-110.56,82.29v504.86c-15.42-1.31-30.99-2.44-46.69-3.4v-527.67
		l20.09-14.95l90.51-67.34v-0.03l20.09-14.95l73.59-54.77l12.43-9.23V344.84L881.35,86.73l-34.26,36.12l-17.34,18.29l-49.21,51.76
		l-17.38,18.29l-20.61,21.73l-22.87,24.08l-17.37,18.39l-63.12,66.49v324.36l28.86-14.89V357.24l34.26-36.29V633.7l17.37-8.93V302.5
		l22.87-24.25v334.7l38.22-19.7V237.77l48.98-51.83V582.2l9.1,5.43l8.25,4.94V167.52l34.26-36.32v481.82l133.93,80.04l22.32,13.35
		v956.48c-12.6-0.23-25.26-0.35-37.99-0.35c-2.6,0-5.19,0.02-7.79,0.03V732.38L815.39,626.96L406.48,837.78v921.09
		c-109.41,41.61-194.56,94.54-245.26,154.48c167.38-89.35,480.16-149.44,838.39-149.44c358.23,0,671.02,60.09,838.39,149.44
		C1787.3,1853.41,1702.15,1800.48,1592.74,1758.87z M425.16,879.96c63.25-16.49,227.93-139.03,323.32-159.32
		c32.85-6.97,57.46-12.14,66.91-14.14v60.14c-9.46,1.97-34.06,7.14-66.91,14.14c-95.38,20.29-260.07,142.79-323.32,159.28V879.96z
		 M425.16,991.27c63.25-16.49,227.93-139,323.32-159.28c32.85-7,57.46-12.17,66.91-14.14v60.14c-9.46,1.97-34.06,7.13-66.91,14.1
		c-95.38,20.28-260.07,142.82-323.32,159.32V991.27z M425.16,1102.62c63.25-16.46,227.93-139.03,323.32-159.29
		c32.85-6.97,57.46-12.14,66.91-14.13v60.11c-9.46,2.03-34.06,7.2-66.91,14.17c-95.38,20.25-260.07,142.79-323.32,159.28V1102.62z
		 M425.16,1214c63.25-16.52,227.93-139.03,323.32-159.32c32.85-6.97,57.46-12.14,66.91-14.14v60.14
		c-9.46,1.96-34.06,7.13-66.91,14.13c-95.38,20.26-260.07,142.8-323.32,159.29V1214z M425.16,1325.32
		c63.25-16.49,227.93-139.03,323.32-159.28c32.85-7,57.46-12.17,66.91-14.14v60.14c-9.46,1.97-34.06,7.14-66.91,14.1
		c-95.38,20.29-260.07,142.82-323.32,159.32V1325.32z M425.16,1436.67c63.25-16.46,227.93-139.03,323.32-159.28
		c32.85-6.97,57.46-12.14,66.91-14.14v60.11c-9.46,1.99-34.06,7.2-66.91,14.17c-95.38,20.25-260.07,142.79-323.32,159.28V1436.67z
		 M425.16,1548.05c63.25-16.52,227.93-139.03,323.32-159.32c32.85-6.97,57.46-12.17,66.91-14.13v60.14
		c-9.46,1.96-34.06,7.13-66.91,14.13c-95.38,20.26-260.07,142.8-323.32,159.29V1548.05z M425.16,1659.37
		c63.25-16.49,227.93-139.03,323.32-159.28c32.85-7,57.46-12.17,66.91-14.14v60.11c-9.46,2-34.06,7.17-66.91,14.14
		c-95.38,20.29-260.07,142.83-323.32,159.32V1659.37z M748.48,1611.43c32.85-6.97,57.46-12.14,66.91-14.17v60.14
		c-9.46,2-34.06,7.2-66.91,14.17c-11.31,2.39-23.62,6.26-36.62,11.21c-65.47,9.51-127.51,22.17-185.12,37.57
		C599.46,1678.38,687.93,1624.28,748.48,1611.43z M1518.92,1135.9l62.99,30.72v63.81l-62.99-30.69V1135.9z M1518.92,1230.43
		l62.99,30.73v63.81l-62.99-30.73V1230.43z M1518.92,1324.96l62.99,30.69v63.84l-62.99-30.72V1324.96z M1518.92,1419.49l62.99,30.69
		v63.81l-62.99-30.69V1419.49z M1518.92,1513.99l62.99,30.72v63.81l-62.99-30.69V1513.99z M1518.92,1608.52l62.99,30.69v63.84
		l-62.99-30.73V1608.52z M1581.91,1733.74v21.07c-20.22-7.45-41.24-14.51-62.99-21.16v-30.59L1581.91,1733.74z M1449.46,1102
		l55.76,27.22v63.81l-55.76-27.19V1102z M1449.46,1196.53l55.76,27.19v63.84l-55.76-27.22V1196.53z M1449.46,1291.06l55.76,27.19
		v63.81l-55.76-27.19V1291.06z M1449.46,1385.59l55.76,27.19v63.81l-55.76-27.19V1385.59z M1449.46,1480.09l55.76,27.22v63.81
		l-55.76-27.19V1480.09z M1449.46,1574.62l55.76,27.19v63.84l-55.76-27.22V1574.62z M1505.21,1696.34v33.19
		c-18.11-5.33-36.71-10.37-55.76-15.13v-45.26L1505.21,1696.34z M1372.79,1064.6l62.96,30.72v63.81l-62.96-30.69V1064.6z
		 M1372.79,1159.13l62.96,30.69v63.84l-62.96-30.73V1159.13z M1372.79,1253.66l62.96,30.69v63.81l-62.96-30.69V1253.66z
		 M1372.79,1348.16l62.96,30.72v63.81l-62.96-30.69V1348.16z M1372.79,1442.69l62.96,30.72v63.81l-62.96-30.69V1442.69z
		 M1372.79,1537.22l62.96,30.69v63.84l-62.96-30.73V1537.22z M1372.79,1695.56v-63.81l62.96,30.69v48.61
		c-18.51-4.44-37.44-8.59-56.74-12.47L1372.79,1695.56z"/>
</g>
</svg>
